<?xml version="1.0" encoding="UTF-8"?>
<svg height="16px" viewBox="0 0 16 16" width="16px" xmlns="http://www.w3.org/2000/svg">
    <path fill="currentColor" fill-rule="evenodd" d="m 3.8 1.15 c -1.007812 0 -1.824219 0.816406 -1.824219 1.824219 v 10.050781 c 0 1.007812 0.816407 1.824219 1.824219 1.824219 h 2.75 c 4.417969 0 7.449219 -2.925781 7.449219 -6.824219 c 0 -3.898438 -3.03125 -6.824219 -7.449219 -6.824219 z m 0.925781 2.050781 h 1.574219 c 3.585938 0 5.625 2.128907 5.625 4.798828 c 0 2.669922 -2.039062 4.798829 -5.625 4.798829 h -1.574219 z"/>
    <path d="m 4.7 8.85 c 0.5 0 0.761719 -0.21875 1.066406 -0.476562 c 0.351563 -0.296876 0.753906 -0.623047 1.535156 -0.623047 c 0.78125 0 1.183594 0.326171 1.535157 0.623047 c 0.304687 0.257812 0.566406 0.476562 1.066406 0.476562 c 0.5 0 0.761719 -0.21875 1.066406 -0.476562 c 0.179688 -0.152344 0.425781 -0.222657 0.660157 -0.191407 c 0.230468 0.035157 0.433593 0.171875 0.542968 0.378907 c 0.113282 0.207031 0.121094 0.457031 0.019532 0.671874 c -0.101563 0.214844 -0.300782 0.371094 -0.539063 0.417969 c -0.699219 0.558594 -1.300781 0.949219 -2.75 0.949219 c -1.019531 0 -1.578125 -0.460938 -1.988281 -0.796875 c -0.28125 -0.234375 -0.460938 -0.353516 -0.613282 -0.353516 c -0.152343 0 -0.332031 0.119141 -0.613281 0.353516 c -0.410156 0.335937 -0.96875 0.796875 -1.988281 0.796875 c -0.414063 0 -0.75 -0.335938 -0.75 -0.75 s 0.335937 -0.75 0.75 -0.75 z" fill="currentColor"/>
</svg>
