<?xml version="1.0" encoding="UTF-8"?>
<svg height="16px" viewBox="0 0 16 16" width="16px" xmlns="http://www.w3.org/2000/svg">
    <path fill="currentColor" fill-rule="evenodd" d="m 8 1 c -2.125 0 -3.875 1.75 -3.875 3.875 v 1.058594 c -1.214844 0.179687 -2.125 1.222656 -2.125 2.480468 v 3.210938 c 0 1.863281 1.511719 3.375 3.375 3.375 h 5.25 c 1.863281 0 3.375 -1.511719 3.375 -3.375 v -3.210938 c 0 -1.257812 -0.910156 -2.300781 -2.125 -2.480468 v -1.058594 c 0 -2.125 -1.75 -3.875 -3.875 -3.875 z m 0 1.5 c 1.296875 0 2.375 1.078125 2.375 2.375 v 1.000000 h -4.75 v -1 c 0 -1.296875 1.078125 -2.375 2.375 -2.375 z m -2.625 4.875 h 5.25 c 1.035156 0 1.875 0.839844 1.875 1.875 v 2.375 c 0 1.035156 -0.839844 1.875 -1.875 1.875 h -5.25 c -1.035156 0 -1.875 -0.839844 -1.875 -1.875 v -2.375 c 0 -1.035156 0.839844 -1.875 1.875 -1.875 z m 2.625 1.3125 c -0.792969 0 -1.4375 0.644531 -1.4375 1.4375 c 0 0.464844 0.222656 0.878906 0.5625 1.140625 v 1.046875 c 0 0.414062 0.335938 0.75 0.75 0.75 h 0.25 c 0.414062 0 0.75 -0.335938 0.75 -0.75 v -1.046875 c 0.339844 -0.261719 0.5625 -0.675781 0.5625 -1.140625 c 0 -0.792969 -0.644531 -1.4375 -1.4375 -1.4375 z"/>
</svg>
