<?xml version="1.0" encoding="UTF-8"?>
<svg height="16px" viewBox="0 0 16 16" width="16px" xmlns="http://www.w3.org/2000/svg">
    <path fill="currentColor" fill-rule="evenodd" d="M4 1.5h8A2.5 2.5 0 0 1 14.5 4v8a2.5 2.5 0 0 1-2.5 2.5H4A2.5 2.5 0 0 1 1.5 12V4A2.5 2.5 0 0 1 4 1.5zm0 1.5C3.17 3 2.5 3.67 2.5 4.5v7c0 .83.67 1.5 1.5 1.5h8c.83 0 1.5-.67 1.5-1.5v-7c0-.83-.67-1.5-1.5-1.5H4z"/>
    <circle cx="4.25" cy="8" r="1"/>
    <path d="M5.7 8h0.8l0.8-2.15 1.15 4.15 1.2-5.7 1.15 3.9 0.75-1.9h1.1" fill="none" stroke="currentColor" stroke-linecap="round" stroke-linejoin="round" stroke-width="1.25"/>
    <path d="M11.95 6.7 13.55 8l-1.6 1.3" fill="none" stroke="currentColor" stroke-linecap="round" stroke-linejoin="round" stroke-width="1.25"/>
</svg>
