<?xml version="1.0" encoding="UTF-8"?>
<svg height="16px" viewBox="0 0 16 16" width="16px" xmlns="http://www.w3.org/2000/svg">
    <path
        d="M 8 1.25
           C 4.273438 1.25 1.25 4.273438 1.25 8
           C 1.25 11.726562 4.273438 14.75 8 14.75
           C 11.726562 14.75 14.75 11.726562 14.75 8
           C 14.75 4.273438 11.726562 1.25 8 1.25 Z
           M 8 2.75
           C 10.898438 2.75 13.25 5.101562 13.25 8
           C 13.25 10.898438 10.898438 13.25 8 13.25
           C 5.101562 13.25 2.75 10.898438 2.75 8
           C 2.75 5.101562 5.101562 2.75 8 2.75 Z
           M 8 5.6
           C 6.675781 5.6 5.6 6.675781 5.6 8
           C 5.6 9.324219 6.675781 10.4 8 10.4
           C 9.324219 10.4 10.4 9.324219 10.4 8
           C 10.4 6.675781 9.324219 5.6 8 5.6 Z
           M 11.1 3.95
           L 12.05 4.9
           C 11.55 5.2 10.95 5.4 10.3 5.45
           C 10.35 4.85 10.6 4.35 11.1 3.95 Z"
        fill="currentColor"
        fill-rule="evenodd"/>
</svg>
