<?xml version="1.0" encoding="UTF-8"?>
<svg height="16px" viewBox="0 0 16 16" width="16px" xmlns="http://www.w3.org/2000/svg">
    <path
        d="M 8 1.25
           C 4.273438 1.25 1.25 4.273438 1.25 8
           C 1.25 11.726562 4.273438 14.75 8 14.75
           C 11.726562 14.75 14.75 11.726562 14.75 8
           C 14.75 4.273438 11.726562 1.25 8 1.25 Z
           M 8 2.75
           C 9.101562 2.75 10.019531 3.519531 10.519531 4.75
           L 9.226562 4.75
           C 9.066406 4.160156 8.664062 3.25 8 3.25
           C 7.335938 3.25 6.933594 4.160156 6.773438 4.75
           L 5.480469 4.75
           C 5.980469 3.519531 6.898438 2.75 8 2.75 Z
           M 4.945312 4.75
           H 6.386719
           C 6.277344 5.378906 6.214844 6.050781 6.191406 6.75
           H 3.011719
           C 3.144531 6.011719 3.488281 5.34375 3.976562 4.820312
           C 4.289062 4.796875 4.613281 4.773438 4.945312 4.75 Z
           M 9.613281 4.75
           H 11.054688
           C 11.386719 4.773438 11.710938 4.796875 12.023438 4.820312
           C 12.511719 5.34375 12.855469 6.011719 12.988281 6.75
           H 9.808594
           C 9.785156 6.050781 9.722656 5.378906 9.613281 4.75 Z
           M 7.480469 4.75
           H 8.519531
           C 8.683594 5.355469 8.78125 6.03125 8.8125 6.75
           H 7.1875
           C 7.21875 6.03125 7.316406 5.355469 7.480469 4.75 Z
           M 3.011719 9.25
           H 6.191406
           C 6.214844 9.949219 6.277344 10.621094 6.386719 11.25
           H 4.945312
           C 4.613281 11.226562 4.289062 11.203125 3.976562 11.179688
           C 3.488281 10.65625 3.144531 9.988281 3.011719 9.25 Z
           M 7.1875 9.25
           H 8.8125
           C 8.78125 9.96875 8.683594 10.644531 8.519531 11.25
           H 7.480469
           C 7.316406 10.644531 7.21875 9.96875 7.1875 9.25 Z
           M 9.808594 9.25
           H 12.988281
           C 12.855469 9.988281 12.511719 10.65625 12.023438 11.179688
           C 11.710938 11.203125 11.386719 11.226562 11.054688 11.25
           H 9.613281
           C 9.722656 10.621094 9.785156 9.949219 9.808594 9.25 Z
           M 5.480469 11.25
           H 6.773438
           C 6.933594 11.839844 7.335938 12.75 8 12.75
           C 8.664062 12.75 9.066406 11.839844 9.226562 11.25
           H 10.519531
           C 10.019531 12.480469 9.101562 13.25 8 13.25
           C 6.898438 13.25 5.980469 12.480469 5.480469 11.25 Z"
        fill="currentColor"/>
</svg>
