<?xml version="1.0" encoding="UTF-8"?>
<svg height="16px" viewBox="0 0 16 16" width="16px" xmlns="http://www.w3.org/2000/svg">
    <path
        d="M 9 1.5
           C 7.12 1.5 5.45 2.4 4.41 3.8
           C 5.0 3.62 5.62 3.5 6.25 3.5
           C 9.7 3.5 12.5 6.3 12.5 9.75
           C 12.5 11.38 11.88 12.86 10.86 13.97
           C 11.24 13.99 11.62 14 12 14
           C 14.21 14 16 12.21 16 10
           C 16 7 13 4.5 11 3.5
           C 10.38 3.18 9.7 1.5 9 1.5 Z
           M 6.25 4.5
           C 3.63 4.5 1.5 6.63 1.5 9.25
           C 1.5 11.87 3.63 14 6.25 14
           C 8.87 14 11 11.87 11 9.25
           C 11 6.63 8.87 4.5 6.25 4.5 Z
           M 13 1
           C 12.72 1 12.5 1.22 12.5 1.5
           C 12.5 1.78 12.72 2 13 2
           C 13.28 2 13.5 1.78 13.5 1.5
           C 13.5 1.22 13.28 1 13 1 Z
           M 14.5 3
           C 14.22 3 14 3.22 14 3.5
           C 14 3.78 14.22 4 14.5 4
           C 14.78 4 15 3.78 15 3.5
           C 15 3.22 14.78 3 14.5 3 Z
           M 12 3.5
           C 11.72 3.5 11.5 3.72 11.5 4
           C 11.5 4.28 11.72 4.5 12 4.5
           C 12.28 4.5 12.5 4.28 12.5 4
           C 12.5 3.72 12.28 3.5 12 3.5 Z"
        fill="currentColor"/>
</svg>
