<?xml version="1.0" encoding="UTF-8"?>
<svg height="16px" viewBox="0 0 16 16" width="16px" xmlns="http://www.w3.org/2000/svg">
    <path
        d="M 8 1.25
           C 4.273438 1.25 1.25 4.273438 1.25 8
           C 1.25 11.726562 4.273438 14.75 8 14.75
           C 10.800781 14.75 13.199219 13.035156 14.207031 10.601562
           L 12.820312 10.027344
           C 12.039062 11.914062 10.183594 13.25 8 13.25
           C 5.101562 13.25 2.75 10.898438 2.75 8
           C 2.75 5.101562 5.101562 2.75 8 2.75
           C 10.316406 2.75 12.285156 4.253906 12.976562 6.339844
           L 11.015625 5.808594
           L 10.625 7.253906
           L 14.40625 8.273438
           L 15.429688 4.492188
           L 13.980469 4.101562
           L 13.519531 5.808594
           C 12.589844 3.164062 10.066406 1.25 8 1.25 Z
           M 7.25 4.25
           L 7.25 8.328125
           L 9.921875 10.257812
           L 10.800781 9.042969
           L 8.75 7.5625
           L 8.75 4.25 Z"
        fill="currentColor"/>
</svg>
